<svg width="24" height="24" viewBox="0 0 24 24" fill="none" xmlns="http://www.w3.org/2000/svg">
  <!-- 盾牌主体 -->
  <path d="M12 2L4 6V10.5C4 16.5 7.5 22 12 22C16.5 22 20 16.5 20 10.5V6L12 2Z" stroke="currentColor" stroke-width="1.5" fill="none"/>
  <path d="M12 3.5L5.5 7V10.5C5.5 15.5 8.5 20 12 20C15.5 20 18.5 15.5 18.5 10.5V7L12 3.5Z" stroke="currentColor" stroke-width="1" fill="none"/>
  
  <!-- VS Code 文字 -->
  <text x="12" y="10" text-anchor="middle" font-family="Arial, sans-serif" font-size="4" font-weight="bold" fill="currentColor">VS</text>
  <text x="12" y="15" text-anchor="middle" font-family="Arial, sans-serif" font-size="3" fill="currentColor">Code</text>
  
  <!-- 周围的连接点和圆圈 -->
  <!-- 代码符号 -->
  <circle cx="5" cy="4" r="1" stroke="currentColor" stroke-width="0.8" fill="none"/>
  <path d="M4.2 3.5L4.8 4L4.2 4.5" stroke="currentColor" stroke-width="0.6" fill="none"/>
  <path d="M5.8 3.5L5.2 4L5.8 4.5" stroke="currentColor" stroke-width="0.6" fill="none"/>
  
  <!-- 齿轮符号 -->
  <circle cx="19" cy="6" r="1.2" stroke="currentColor" stroke-width="0.8" fill="none"/>
  <circle cx="19" cy="6" r="0.4" fill="currentColor"/>
  <path d="M18.4 5.4L18.6 5.6M19.4 5.4L19.6 5.6M19.4 6.6L19.6 6.4M18.4 6.6L18.6 6.4" stroke="currentColor" stroke-width="0.6"/>
  
  <!-- 其他连接点 -->
  <circle cx="3" cy="9" r="0.8" stroke="currentColor" stroke-width="0.8" fill="none"/>
  <circle cx="21" cy="11" r="0.8" stroke="currentColor" stroke-width="0.8" fill="none"/>
  <circle cx="2" cy="15" r="0.6" stroke="currentColor" stroke-width="0.8" fill="none"/>
  <circle cx="22" cy="16" r="0.6" stroke="currentColor" stroke-width="0.8" fill="none"/>
  <circle cx="4" cy="20" r="0.8" stroke="currentColor" stroke-width="0.8" fill="none"/>
  <circle cx="20" cy="20" r="0.8" stroke="currentColor" stroke-width="0.8" fill="none"/>
  
  <!-- 连接线 -->
  <path d="M5 4.8L5.5 6.2" stroke="currentColor" stroke-width="0.5" stroke-dasharray="1,1"/>
  <path d="M18.2 6.8L17 8.5" stroke="currentColor" stroke-width="0.5" stroke-dasharray="1,1"/>
  <path d="M3.8 9.5L4.2 10.5" stroke="currentColor" stroke-width="0.5" stroke-dasharray="1,1"/>
  <path d="M20.2 11.5L19.5 13" stroke="currentColor" stroke-width="0.5" stroke-dasharray="1,1"/>
  <path d="M2.8 15.5L3.5 17.5" stroke="currentColor" stroke-width="0.5" stroke-dasharray="1,1"/>
  <path d="M21.2 16.5L20.5 18" stroke="currentColor" stroke-width="0.5" stroke-dasharray="1,1"/>
</svg>
