<svg width="128" height="128" viewBox="0 0 128 128" fill="none" xmlns="http://www.w3.org/2000/svg">
  <!-- 盾牌主体 -->
  <path d="M64 10L21 32V56C21 88 42 118 64 118C86 118 107 88 107 56V32L64 10Z" stroke="#333333" stroke-width="3" fill="none"/>
  <path d="M64 18L29 36V56C29 83 45 106 64 106C83 106 99 83 99 56V36L64 18Z" stroke="#333333" stroke-width="2" fill="none"/>
  
  <!-- VS Code 文字 -->
  <text x="64" y="52" text-anchor="middle" font-family="Arial, sans-serif" font-size="20" font-weight="bold" fill="#333333">VS</text>
  <text x="64" y="76" text-anchor="middle" font-family="Arial, sans-serif" font-size="14" fill="#333333">Code</text>
  
  <!-- 周围的连接点和符号 -->
  <!-- 左上角 - 代码符号 -->
  <circle cx="26" cy="20" r="5" stroke="#333333" stroke-width="2" fill="none"/>
  <path d="M22 18L26 20L22 22" stroke="#333333" stroke-width="2" fill="none"/>
  <path d="M30 18L26 20L30 22" stroke="#333333" stroke-width="2" fill="none"/>
  
  <!-- 右上角 - 齿轮符号 -->
  <circle cx="102" cy="32" r="6" stroke="#333333" stroke-width="2" fill="none"/>
  <circle cx="102" cy="32" r="2" fill="#333333"/>
  <path d="M98 28L100 30M106 28L104 30M106 36L104 34M98 36L100 34" stroke="#333333" stroke-width="2"/>
  
  <!-- 左侧 - 菜单符号 -->
  <circle cx="16" cy="48" r="4" stroke="#333333" stroke-width="2" fill="none"/>
  <path d="M13 46H19M13 48H19M13 50H19" stroke="#333333" stroke-width="1.5"/>
  
  <!-- 右侧 - X符号 -->
  <circle cx="112" cy="60" r="4" stroke="#333333" stroke-width="2" fill="none"/>
  <path d="M109 57L115 63M115 57L109 63" stroke="#333333" stroke-width="2"/>
  
  <!-- 其他连接点 -->
  <circle cx="15" cy="82" r="3" stroke="#333333" stroke-width="2" fill="none"/>
  <circle cx="113" cy="90" r="3" stroke="#333333" stroke-width="2" fill="none"/>
  <circle cx="22" cy="108" r="4" stroke="#333333" stroke-width="2" fill="none"/>
  <circle cx="106" cy="108" r="4" stroke="#333333" stroke-width="2" fill="none"/>
  
  <!-- 顶部连接点 -->
  <circle cx="44" cy="12" r="3" stroke="#333333" stroke-width="2" fill="none"/>
  <circle cx="84" cy="12" r="3" stroke="#333333" stroke-width="2" fill="none"/>
  
  <!-- 连接线 -->
  <path d="M26 25L32 35" stroke="#333333" stroke-width="1" stroke-dasharray="3,3"/>
  <path d="M96 36L90 45" stroke="#333333" stroke-width="1" stroke-dasharray="3,3"/>
  <path d="M20 52L25 60" stroke="#333333" stroke-width="1" stroke-dasharray="3,3"/>
  <path d="M108 64L103 72" stroke="#333333" stroke-width="1" stroke-dasharray="3,3"/>
  <path d="M18 85L24 95" stroke="#333333" stroke-width="1" stroke-dasharray="3,3"/>
  <path d="M110 93L104 103" stroke="#333333" stroke-width="1" stroke-dasharray="3,3"/>
  <path d="M44 15L52 25" stroke="#333333" stroke-width="1" stroke-dasharray="3,3"/>
  <path d="M84 15L76 25" stroke="#333333" stroke-width="1" stroke-dasharray="3,3"/>
  
  <!-- 额外的装饰性连接点 -->
  <circle cx="35" cy="115" r="2" stroke="#333333" stroke-width="1.5" fill="none"/>
  <circle cx="93" cy="115" r="2" stroke="#333333" stroke-width="1.5" fill="none"/>
  <circle cx="8" cy="65" r="2" stroke="#333333" stroke-width="1.5" fill="none"/>
  <circle cx="120" cy="45" r="2" stroke="#333333" stroke-width="1.5" fill="none"/>
</svg>
